<svg width="1947" height="1237" viewBox="0 0 1947 1237" fill="none" xmlns="http://www.w3.org/2000/svg">
<path d="M1733.33 680.877C1725.77 665.443 1720.46 649.378 1719.6 632.294C1718.11 601.908 1731.16 572.771 1744.25 545.029C1757.35 517.288 1771 488.548 1770.81 458.13C1770.68 436.721 1761.8 413.61 1744.41 399.452C1724.29 383.082 1697.81 381.73 1673.46 375.101C1655.03 370.085 1637.5 362.453 1620.77 353.616C1586.24 335.378 1555.28 311.768 1523.84 289.212C1464.29 246.457 1389.99 206.298 1318.8 227.446C1266.47 242.991 1227.85 289.173 1174.34 300.504C1129.94 309.904 1083.68 293.137 1045.61 269.436C1007.53 245.735 974.611 215.064 936.27 191.727C860.216 145.463 763.715 130.904 676.383 152.52C589.05 174.136 512.181 231.628 469.36 307.315C446.266 348.152 432.949 393.283 412.452 435.341C393.631 473.965 366.98 511.393 327.387 532.937C310.563 542.096 293.718 543.515 276.428 549.43C256.459 556.266 237.817 572.588 225.257 588.467C201.668 618.338 193.115 657.057 193.976 694.425C195.64 767.17 178.999 880.978 237.505 931.299C275.97 964.369 366.448 947.887 417.344 957.093C658.223 1000.65 822.328 1041.15 1066.57 1020.75C1221.04 1007.83 1351.74 1009.95 1506.73 1014.71C1542.98 1015.82 1687.84 928.277 1722.68 918.687C1757.53 909.096 1790.53 886.112 1801.02 853.023C1813.17 814.715 1793.06 774.243 1770.54 740.464C1757.66 721.116 1743.47 701.562 1733.33 680.877Z" fill="#CBEAE1"/>
<path d="M200.981 969.896H740.525C740.525 969.896 725.099 733.862 633.79 753.139C544.282 772.035 558.343 602.633 485.218 607.49C412.094 612.347 454.528 763.911 401.011 779.12C356.375 791.807 324.687 729.989 279.498 753.904C231.002 779.568 262.973 933.071 200.981 969.896Z" fill="#99B440"/>
<path d="M555.07 970.137C526.061 882.445 508.379 788.552 498.657 725.188C488.123 656.558 484.4 608.029 484.362 607.546L486.026 607.431C486.064 607.914 489.771 656.395 500.313 724.969C510.027 788.251 527.687 882.068 556.659 969.65L555.07 970.137Z" fill="#3B3B3B"/>
<path d="M453.16 970.53C423.048 948.129 395.308 922.973 370.338 895.421C350.508 873.547 332.522 850.215 316.546 825.642C289.696 784.27 278.792 754.451 278.688 754.158L280.289 753.63C280.393 753.928 291.256 783.612 318.014 824.841C333.943 849.33 351.876 872.583 371.644 894.383C396.535 921.843 424.185 946.917 454.2 969.245L453.16 970.53Z" fill="#3B3B3B"/>
<path d="M636.257 970.145L634.651 969.641C652.362 917.985 658.939 862.728 661.335 825.471C663.935 785.087 662.325 756.56 662.309 756.279L663.973 756.188C663.973 756.473 665.608 785.075 663.004 825.547C660.624 862.903 654.026 918.314 636.257 970.145Z" fill="#3B3B3B"/>
<path d="M521.967 625.337L494.425 695.502L496.007 696.066L523.549 625.901L521.967 625.337Z" fill="#3B3B3B"/>
<path d="M507.173 775.817C466.735 713.507 442.019 652.446 441.773 651.836L443.354 651.261C443.596 651.867 468.258 712.794 508.608 774.961L507.173 775.817Z" fill="#3B3B3B"/>
<path d="M535.895 899.6L534.256 899.204C542.759 867.363 551.084 819.029 556.567 784.087C562.512 746.216 566.498 715.497 566.552 715.18L568.216 715.378C568.174 715.684 564.189 746.434 558.231 784.321C552.748 819.294 544.415 867.688 535.895 899.6Z" fill="#3B3B3B"/>
<path d="M656.85 872.093C635.288 810.406 628.756 754.55 628.689 753.991L630.354 753.821C630.42 754.376 636.935 810.065 658.435 871.574L656.85 872.093Z" fill="#3B3B3B"/>
<path d="M646.579 934.438L645.501 933.201C686.271 901.02 716.999 842.865 717.303 842.278L718.817 842.999C718.509 843.586 687.611 902.038 646.579 934.438Z" fill="#3B3B3B"/>
<path d="M418.168 940.707L416.525 940.342C428.814 889.942 416.629 768.348 416.504 767.122L418.189 766.968C418.314 768.193 430.524 890.053 418.168 940.707Z" fill="#3B3B3B"/>
<path d="M376.699 901.979C337.717 899.47 303.769 889.217 282.157 881.057C258.731 872.212 244.299 863.842 244.174 863.759L245.06 862.383C245.201 862.467 259.517 870.781 282.818 879.574C304.314 887.686 338.067 897.88 376.811 900.374L376.699 901.979Z" fill="#3B3B3B"/>
<path d="M332.067 845.822L330.403 845.561C339.556 792.037 330.511 757.821 330.403 757.48L332.042 757.083C332.142 757.417 341.266 791.942 332.067 845.822Z" fill="#3B3B3B"/>
<path d="M1722.76 659.86C1764.1 670.196 1695.4 800.323 1709.94 816.107C1724.49 831.89 1772.08 795.359 1793.92 808.312C1815.76 821.265 1778.64 877.465 1783.55 890.997C1788.46 904.528 1806.85 905.27 1794.7 930.561H1424.06C1424.06 930.561 1435.81 791.065 1472.92 787.081C1493.83 784.833 1493.77 825.372 1507.19 825.234C1531.28 824.98 1525.78 718.38 1573.82 712.334C1602.24 708.765 1593.74 749.138 1610.38 744.309C1627.01 739.48 1672.52 647.296 1722.76 659.86Z" fill="#5B8539"/>
<path d="M1594.49 930.719L1593.5 930.402C1618.22 860.456 1651.93 790.558 1675.87 744.234C1701.79 694.044 1722.13 659.951 1722.33 659.614L1723.25 660.11C1723.04 660.447 1702.71 694.52 1676.8 744.682C1652.87 790.966 1619.2 860.833 1594.49 930.719Z" fill="#3B3B3B"/>
<path d="M1548.74 930.577C1547.74 900.984 1548.83 851.282 1559.7 782.478C1566.2 741.34 1573.23 712.504 1573.3 712.219L1574.32 712.445C1574.25 712.734 1567.24 741.538 1560.74 782.621C1554.74 820.543 1547.98 876.982 1549.79 930.529L1548.74 930.577Z" fill="#3B3B3B"/>
<path d="M1683.79 930.922L1683.1 930.168C1713.58 904.765 1741.36 876.573 1766.05 845.997C1784.18 823.43 1793.39 808.197 1793.48 808.046L1794.39 808.546C1794.3 808.697 1785.07 823.973 1766.9 846.588C1742.16 877.225 1714.33 905.472 1683.79 930.922V930.922Z" fill="#3B3B3B"/>
<path d="M1476.48 930.672C1473.35 917.505 1469.76 891.354 1470.33 841.533C1470.68 811.754 1472.37 787.291 1472.41 787.049L1473.46 787.113C1473.46 787.359 1471.74 811.797 1471.38 841.549C1470.8 891.271 1474.39 917.339 1477.5 930.45L1476.48 930.672Z" fill="#3B3B3B"/>
<path d="M1686.5 726.072L1685.46 725.949C1688.37 704.17 1694.91 662.782 1694.98 662.37L1696.02 662.517C1695.95 662.933 1689.39 704.305 1686.5 726.072Z" fill="#3B3B3B"/>
<path d="M1660.74 776.321L1660.13 775.528C1695.18 751.676 1731.73 712.417 1732.1 712.021L1732.89 712.683C1732.51 713.059 1695.88 752.405 1660.74 776.321Z" fill="#3B3B3B"/>
<path d="M1622.67 858.855L1621.62 858.788C1627.34 776.824 1639.21 712.885 1639.33 712.247L1640.36 712.421C1640.24 713.055 1628.38 776.951 1622.67 858.855Z" fill="#3B3B3B"/>
<path d="M1562.89 769.196L1562.06 768.605C1573.92 753.258 1590.99 719.391 1591.18 719.046L1592.12 719.478C1591.92 719.823 1574.81 753.777 1562.89 769.196Z" fill="#3B3B3B"/>
<path d="M1550.74 857.435C1535.32 806.242 1540.03 744.662 1540.08 744.043L1541.12 744.119C1541.07 744.733 1536.38 806.139 1551.75 857.154L1550.74 857.435Z" fill="#3B3B3B"/>
<path d="M1779.61 805.371L1768.78 842.582L1769.79 842.849L1780.63 805.638L1779.61 805.371Z" fill="#3B3B3B"/>
<path d="M1730.61 887.504L1730.22 886.58C1760.11 874.955 1795.71 845.402 1796.07 845.105L1796.76 845.858C1796.4 846.156 1760.67 875.812 1730.61 887.504Z" fill="#3B3B3B"/>
<path d="M1701.96 914.084C1698.09 884.745 1701.02 860.163 1704.17 844.736C1707.58 827.997 1711.97 818.054 1712.01 817.958L1712.98 818.355C1712.94 818.454 1708.58 828.322 1705.19 844.97C1702.06 860.33 1699.15 884.768 1703 913.957L1701.96 914.084Z" fill="#3B3B3B"/>
<path d="M1474.32 909.996L1473.43 909.477C1490.9 882.12 1506.5 825.674 1506.66 825.107L1507.68 825.361C1507.52 825.928 1491.87 882.497 1474.32 909.996Z" fill="#3B3B3B"/>
<path d="M1470.43 862.09C1451.82 839.578 1447.22 815.881 1447.18 815.643L1448.21 815.468C1448.26 815.702 1452.82 839.166 1471.25 861.459L1470.43 862.09Z" fill="#3B3B3B"/>
<path d="M809.527 941.694L174.41 983.673C174.41 983.673 190.914 905.825 298.706 905.548C369.431 905.365 391.384 864.861 454.104 874.5C516.824 884.138 519.583 909.631 583.488 898.736C647.394 887.841 678.875 900.27 696.714 910.698C714.553 921.125 784.487 944.077 809.527 941.694Z" fill="#72B550"/>
<path d="M1767.95 951.142C1760.46 938.086 1745.83 920.871 1707.96 921.125C1670.1 921.378 1674.35 896.087 1641.82 876.525C1609.28 856.963 1596.34 874.971 1572.97 868.374C1548.17 861.368 1553.12 828.929 1515.51 830.554C1477.91 832.18 1455.6 953.259 1455.6 953.259L1823.37 999.646C1808.98 997.882 1775.46 964.178 1767.95 951.142Z" fill="#72B550"/>
<path d="M973.5 1094.27C1447.98 1094.27 1832.62 1057.86 1832.62 1012.94C1832.62 968.03 1447.98 931.62 973.5 931.62C499.02 931.62 114.378 968.03 114.378 1012.94C114.378 1057.86 499.02 1094.27 973.5 1094.27Z" fill="#306A6D"/>
<path d="M1464.53 430.353H725.486V899.22H1464.53V430.353Z" fill="#4D94E8"/>
<path d="M1518.27 899.22H671.748V935.961H1518.27V899.22Z" fill="#4D94E8"/>
<path d="M1464.53 862.479H725.486V899.22H1464.53V862.479Z" fill="#1C68A5"/>
<path d="M1413.67 480.689H780.646V828.433H1413.67V480.689Z" fill="#1C68A5"/>
<path d="M885.473 464.153H811.283V846.33H885.473V464.153Z" fill="#8AC5FF"/>
<path d="M834.344 812.412C832.217 812.412 830.177 811.606 828.673 810.173C827.168 808.739 826.323 806.795 826.323 804.768V505.715C826.323 503.688 827.168 501.743 828.673 500.31C830.177 498.876 832.217 498.071 834.344 498.071V498.071C836.472 498.071 838.512 498.876 840.016 500.31C841.52 501.743 842.365 503.688 842.365 505.715V804.768C842.365 806.795 841.52 808.739 840.016 810.173C838.512 811.606 836.472 812.412 834.344 812.412V812.412Z" fill="#4D94E8"/>
<path d="M862.421 812.412C860.294 812.412 858.254 811.606 856.75 810.173C855.245 808.739 854.4 806.795 854.4 804.768V505.715C854.4 503.688 855.245 501.743 856.75 500.31C858.254 498.876 860.294 498.071 862.421 498.071V498.071C864.548 498.072 866.587 498.878 868.09 500.311C869.594 501.745 870.438 503.688 870.438 505.715V804.768C870.438 806.794 869.594 808.738 868.09 810.171C866.587 811.605 864.548 812.411 862.421 812.412Z" fill="#4D94E8"/>
<path d="M891.156 830.658V826.903H805.604V830.658C805.604 835.019 802.692 838.765 798.432 840.383C793.841 842.127 789.905 845.144 787.132 849.042C784.359 852.941 782.877 857.543 782.877 862.253H913.879C913.879 857.543 912.397 852.942 909.625 849.044C906.853 845.145 902.918 842.128 898.328 840.383C894.081 838.765 891.156 835.019 891.156 830.658Z" fill="#1C68A5"/>
<path d="M805.604 478.073V481.831H891.156V478.073C891.156 473.711 894.068 469.969 898.328 468.351C902.918 466.605 906.853 463.588 909.626 459.688C912.398 455.789 913.879 451.187 913.879 446.478H782.877C782.877 451.188 784.359 455.79 787.132 459.689C789.905 463.588 793.841 466.606 798.432 468.351C802.68 469.969 805.604 473.715 805.604 478.073Z" fill="#1C68A5"/>
<path d="M1049.89 464.153H975.705V846.33H1049.89V464.153Z" fill="#8AC5FF"/>
<path d="M998.761 812.412C996.634 812.412 994.594 811.606 993.09 810.173C991.585 808.739 990.74 806.795 990.74 804.768V505.715C990.74 503.688 991.585 501.743 993.09 500.31C994.594 498.876 996.634 498.071 998.761 498.071V498.071C999.815 498.071 1000.86 498.269 1001.83 498.653C1002.8 499.037 1003.69 499.6 1004.43 500.31C1005.18 501.019 1005.77 501.862 1006.17 502.79C1006.57 503.717 1006.78 504.711 1006.78 505.715V804.768C1006.78 805.771 1006.57 806.765 1006.17 807.693C1005.77 808.62 1005.18 809.463 1004.43 810.173C1003.69 810.882 1002.8 811.446 1001.83 811.83C1000.86 812.214 999.815 812.412 998.761 812.412V812.412Z" fill="#4D94E8"/>
<path d="M1018.81 809.946C1016.69 809.946 1014.65 809.14 1013.14 807.707C1011.64 806.273 1010.79 804.329 1010.79 802.302V503.249C1010.79 501.222 1011.64 499.277 1013.14 497.844C1014.65 496.41 1016.69 495.605 1018.81 495.605V495.605C1019.87 495.605 1020.91 495.803 1021.88 496.187C1022.86 496.571 1023.74 497.134 1024.48 497.844C1025.23 498.554 1025.82 499.396 1026.22 500.324C1026.63 501.251 1026.83 502.245 1026.83 503.249V802.302C1026.83 803.305 1026.63 804.3 1026.22 805.227C1025.82 806.154 1025.23 806.997 1024.48 807.707C1023.74 808.417 1022.86 808.98 1021.88 809.364C1020.91 809.748 1019.87 809.946 1018.81 809.946V809.946Z" fill="#4D94E8"/>
<path d="M1055.57 830.658V826.903H970.022V830.658C970.022 835.019 967.109 838.765 962.849 840.383C958.258 842.127 954.321 845.143 951.548 849.042C948.774 852.941 947.291 857.542 947.29 862.253H1078.3C1078.3 857.543 1076.81 852.942 1074.04 849.044C1071.27 845.145 1067.34 842.128 1062.75 840.383C1058.5 838.765 1055.57 835.019 1055.57 830.658Z" fill="#1C68A5"/>
<path d="M970.022 478.073V481.831H1055.57V478.073C1055.57 473.711 1058.49 469.969 1062.75 468.351C1067.34 466.605 1071.27 463.588 1074.04 459.688C1076.82 455.789 1078.3 451.187 1078.3 446.478H947.29C947.29 451.187 948.771 455.789 951.544 459.688C954.316 463.588 958.251 466.605 962.841 468.351C967.097 469.969 970.022 473.715 970.022 478.073Z" fill="#1C68A5"/>
<path d="M1214.31 464.153H1140.12V846.33H1214.31V464.153Z" fill="#8AC5FF"/>
<path d="M1163.18 812.412C1162.13 812.412 1161.09 812.214 1160.11 811.83C1159.14 811.446 1158.26 810.882 1157.51 810.173C1156.77 809.463 1156.18 808.62 1155.77 807.693C1155.37 806.765 1155.16 805.771 1155.16 804.768V505.715C1155.16 504.711 1155.37 503.717 1155.77 502.79C1156.18 501.862 1156.77 501.019 1157.51 500.31C1158.26 499.6 1159.14 499.037 1160.11 498.653C1161.09 498.269 1162.13 498.071 1163.18 498.071V498.071C1165.31 498.071 1167.35 498.876 1168.85 500.31C1170.36 501.743 1171.2 503.688 1171.2 505.715V804.768C1171.2 806.795 1170.36 808.739 1168.85 810.173C1167.35 811.606 1165.31 812.412 1163.18 812.412V812.412Z" fill="#4D94E8"/>
<path d="M1191.25 812.412C1190.2 812.412 1189.16 812.214 1188.18 811.83C1187.21 811.446 1186.32 810.882 1185.58 810.173C1184.84 809.463 1184.24 808.62 1183.84 807.693C1183.44 806.765 1183.23 805.771 1183.23 804.768V505.715C1183.23 504.711 1183.44 503.717 1183.84 502.79C1184.24 501.862 1184.84 501.019 1185.58 500.31C1186.32 499.6 1187.21 499.037 1188.18 498.653C1189.16 498.269 1190.2 498.071 1191.25 498.071V498.071C1193.38 498.071 1195.42 498.876 1196.92 500.31C1198.43 501.743 1199.27 503.688 1199.27 505.715V804.768C1199.27 806.795 1198.43 808.739 1196.92 810.173C1195.42 811.606 1193.38 812.412 1191.25 812.412V812.412Z" fill="#4D94E8"/>
<path d="M1219.99 830.658V826.903H1134.44V830.658C1134.44 835.019 1131.53 838.765 1127.27 840.383C1122.68 842.127 1118.74 845.144 1115.97 849.042C1113.2 852.941 1111.72 857.543 1111.72 862.253H1242.72C1242.72 857.543 1241.24 852.941 1238.46 849.042C1235.69 845.144 1231.75 842.127 1227.16 840.383C1222.92 838.765 1219.99 835.019 1219.99 830.658Z" fill="#4D4D4D"/>
<path d="M1134.44 478.073V481.831H1219.99V478.073C1219.99 473.711 1222.9 469.969 1227.16 468.351C1231.75 466.606 1235.69 463.588 1238.46 459.689C1241.24 455.79 1242.72 451.188 1242.72 446.478H1111.72C1111.72 451.188 1113.2 455.79 1115.97 459.689C1118.75 463.588 1122.68 466.606 1127.27 468.351C1131.52 469.969 1134.44 473.715 1134.44 478.073Z" fill="#1C68A5"/>
<path d="M1378.73 464.153H1304.54V846.33H1378.73V464.153Z" fill="#8AC5FF"/>
<path d="M1327.6 812.412C1325.47 812.412 1323.43 811.606 1321.93 810.173C1320.42 808.739 1319.58 806.795 1319.58 804.768V505.715C1319.58 503.688 1320.42 501.743 1321.93 500.31C1323.43 498.876 1325.47 498.071 1327.6 498.071V498.071C1329.73 498.071 1331.77 498.876 1333.27 500.31C1334.78 501.743 1335.62 503.688 1335.62 505.715V804.768C1335.62 806.795 1334.78 808.739 1333.27 810.173C1331.77 811.606 1329.73 812.412 1327.6 812.412V812.412Z" fill="#4D94E8"/>
<path d="M1355.67 812.412C1353.55 812.412 1351.51 811.606 1350 810.173C1348.5 808.739 1347.65 806.795 1347.65 804.768V505.715C1347.65 503.688 1348.5 501.743 1350 500.31C1351.51 498.876 1353.55 498.071 1355.67 498.071V498.071C1357.8 498.071 1359.84 498.876 1361.34 500.31C1362.85 501.743 1363.69 503.688 1363.69 505.715V804.768C1363.69 806.795 1362.85 808.739 1361.34 810.173C1359.84 811.606 1357.8 812.412 1355.67 812.412V812.412Z" fill="#4D94E8"/>
<path d="M1384.41 830.658V826.903H1298.86V830.658C1298.86 835.019 1295.95 838.765 1291.69 840.383C1287.1 842.128 1283.16 845.145 1280.39 849.044C1277.62 852.942 1276.14 857.543 1276.14 862.253H1407.14C1407.14 857.543 1405.65 852.942 1402.88 849.044C1400.11 845.145 1396.17 842.128 1391.58 840.383C1387.34 838.765 1384.41 835.019 1384.41 830.658Z" fill="#4D4D4D"/>
<path d="M1298.86 478.073V481.831H1384.41V478.073C1384.41 473.711 1387.32 469.969 1391.58 468.351C1396.17 466.605 1400.11 463.588 1402.88 459.688C1405.65 455.789 1407.14 451.187 1407.14 446.478H1276.14C1276.14 451.187 1277.62 455.789 1280.39 459.688C1283.16 463.588 1287.1 466.605 1291.69 468.351C1295.92 469.969 1298.86 473.715 1298.86 478.073Z" fill="#1C68A5"/>
<path d="M1483.92 425.516L1095.01 179.321L706.1 425.516L728.078 446.466H1461.94L1483.92 425.516Z" fill="#4D94E8"/>
<path d="M736.478 446.466L1095.01 219.496L1453.54 446.466H1461.94L1483.92 425.516L1095.01 179.321L706.1 425.516L728.078 446.466H736.478Z" fill="#8AC5FF"/>
<path d="M1095.01 275.804L890.694 405.146H1299.32L1095.01 275.804Z" fill="#1C68A5"/>
<path opacity="0.3" d="M583.526 578.904L583.942 576.212L583.897 576.185C583.783 577.081 583.659 577.987 583.526 578.904Z" fill="white"/>
<path d="M1092.09 334.053C1092.85 333.344 1093.76 332.802 1094.76 332.467C1096 332.065 1097.31 331.882 1098.62 331.928C1101.36 331.963 1103.54 332.863 1105.15 334.628C1106.76 336.394 1107.53 339.037 1107.48 342.558L1121.81 342.76C1121.89 340.071 1121.49 337.39 1120.62 334.83C1119.86 332.561 1118.62 330.461 1116.99 328.655C1115.36 326.849 1113.37 325.373 1111.13 324.316C1108.71 323.165 1106.11 322.403 1103.43 322.06L1103.57 312.545L1095.64 312.438L1095.5 321.83C1092.73 322.008 1090 322.584 1087.41 323.539C1085.12 324.383 1083.01 325.61 1081.17 327.163C1079.45 328.64 1078.07 330.446 1077.12 332.463C1076.15 334.604 1075.64 336.913 1075.63 339.247C1075.59 342.118 1076.07 344.598 1077.08 346.689C1078.1 348.791 1079.56 350.666 1081.39 352.192C1083.42 353.878 1085.68 355.291 1088.12 356.391C1090.98 357.708 1093.91 358.884 1096.89 359.915C1098.53 360.458 1100.11 361.111 1101.65 361.87C1102.81 362.439 1103.87 363.162 1104.81 364.019C1105.59 364.739 1106.19 365.619 1106.56 366.592C1106.92 367.641 1107.09 368.743 1107.06 369.847C1107.05 370.876 1106.83 371.895 1106.42 372.844C1106.01 373.761 1105.39 374.575 1104.59 375.223C1103.72 375.923 1102.71 376.448 1101.62 376.765C1100.29 377.149 1098.91 377.322 1097.52 377.277C1096.17 377.262 1094.83 377.074 1093.54 376.718C1092.25 376.374 1091.07 375.757 1090.07 374.914C1089 373.987 1088.17 372.832 1087.66 371.544C1087.03 369.875 1086.74 368.103 1086.83 366.33L1072.5 366.132C1072.44 369.639 1073 372.662 1074.16 375.199C1075.22 377.604 1076.81 379.76 1078.83 381.519C1080.8 383.21 1083.1 384.531 1085.59 385.413C1088.14 386.326 1090.81 386.937 1093.52 387.232L1093.39 395.923L1101.29 396.034L1101.42 387.312C1104.2 387.131 1106.94 386.577 1109.56 385.666C1111.86 384.872 1113.99 383.681 1115.84 382.154C1117.57 380.696 1118.96 378.904 1119.91 376.896C1121.92 372.321 1121.94 367.176 1119.98 362.584C1118.96 360.478 1117.49 358.597 1115.67 357.061C1113.65 355.364 1111.4 353.937 1108.97 352.818C1106.36 351.581 1103.46 350.371 1100.27 349.187C1098.58 348.575 1096.93 347.869 1095.32 347.074C1094.15 346.508 1093.08 345.784 1092.13 344.925C1091.38 344.236 1090.82 343.394 1090.47 342.463C1090.14 341.513 1089.99 340.516 1090.02 339.517C1090.02 338.487 1090.21 337.465 1090.56 336.492C1090.87 335.58 1091.39 334.746 1092.09 334.053V334.053Z" fill="white"/>
</svg>
