<svg width="824" height="584" viewBox="0 0 824 584" fill="none" xmlns="http://www.w3.org/2000/svg">
<path d="M821.238 364.374C811.377 416.485 756.1 477.81 651.067 518.583C644.566 521.11 637.952 523.56 631.236 525.923C608.305 534.001 584.165 541.126 559.244 547.037C557.125 547.54 555.002 548.033 552.877 548.52C550.298 549.105 547.709 549.68 545.118 550.239C468.421 566.82 385.212 571.712 307.487 557.634C305.273 557.231 303.068 556.819 300.859 556.385C299.06 556.031 297.262 555.669 295.464 555.294C257.273 547.343 220.58 534.647 186.838 516.318C159.037 501.216 135.946 483.534 117.107 464.133C112.569 459.464 108.28 454.697 104.232 449.839C104.188 449.785 104.14 449.731 104.093 449.674C92.5637 435.822 82.9841 421.26 75.2004 406.265C73.7629 403.494 72.3852 400.706 71.0711 397.907H71.0678C68.3333 392.09 65.8588 386.216 63.6372 380.302C9.06902 235.04 107.233 65.6184 233.05 106.996C358.713 148.322 428.18 111.238 460.413 82.1378C489.632 55.7559 530.178 39.1698 574.119 35.5962C604.844 33.0984 633.724 39.8071 660.171 53.0456C770.103 108.075 837.981 275.928 821.238 364.374Z" fill="#DCEEFF"/>
<path d="M821.238 364.374C811.376 416.486 756.1 477.81 651.066 518.584C644.565 521.11 637.951 523.56 631.236 525.923C608.304 534.002 584.164 541.126 559.244 547.038C557.124 547.541 555.002 548.033 552.877 548.52C550.297 549.106 547.709 549.68 545.118 550.239C468.42 566.82 385.211 571.712 307.486 557.634C305.273 557.232 303.067 556.819 300.859 556.385C299.06 556.031 297.262 555.669 295.464 555.294C257.273 547.343 220.58 534.647 186.838 516.318C159.037 501.216 135.945 483.534 117.107 464.133C112.568 459.464 108.279 454.697 104.231 449.839C104.187 449.785 104.14 449.731 104.093 449.675C92.5632 435.823 82.9837 421.26 75.1999 406.265C73.7624 403.494 72.3848 400.706 71.0707 397.907H71.0673C68.3329 392.09 65.8583 386.217 63.6367 380.303C275.895 387.163 622.083 359.149 660.171 53.0459C770.102 108.075 837.98 275.928 821.238 364.374Z" fill="#BED6F8"/>
<path d="M413.551 86.6747C469.564 62.7466 469.614 -25.7579 385.76 9.63326C325.465 35.081 252.218 -35.0439 216.504 25.1652C201.066 51.1902 258.685 152.832 413.551 86.6747Z" fill="#DCEEFF"/>
<path d="M39.9258 317.237C39.9258 317.237 9.75267 166.547 75.0107 134.033C140.269 101.52 17.256 185.181 39.9258 317.237Z" fill="#DCEEFF"/>
<path d="M746.169 449.569H164.487L144.962 353.033C144.962 353.033 143.582 348.556 142.378 341.663H142.375C138.257 318.089 136.157 266.229 198.15 268.337L731.36 272.585C731.36 272.585 757.043 272.284 771.915 289.937C776.903 295.852 780.672 303.784 781.853 314.417C786.566 356.787 746.169 449.569 746.169 449.569Z" fill="#0466E1"/>
<path opacity="0.63" d="M746.168 449.569H164.487L144.962 353.033C144.962 353.033 143.582 348.557 142.378 341.663C142.378 341.663 524.996 422.865 771.914 289.938C776.902 295.852 780.671 303.784 781.853 314.417C786.565 356.787 746.168 449.569 746.168 449.569Z" fill="#005CC1"/>
<path d="M617.16 294.773C617.916 299.199 426.295 344.25 422.507 345.656C418.72 347.065 400.292 336.154 401.048 328.649C401.272 326.442 401.973 323.144 403.048 319.106C409.405 295.238 428.79 245.562 439.085 242.752C440.557 242.349 442.689 241.884 445.258 241.372L445.269 241.369C450.283 240.369 456.97 239.191 463.708 237.957L464.255 237.858C477.185 235.484 490.144 232.917 491.682 231.019C494.46 227.602 492.944 218.953 492.944 218.953C492.944 218.953 483.942 223.868 468.567 216.539C453.197 209.209 452.859 199.467 450.951 192.851C449.042 186.238 436.307 160.226 454.823 151.578C454.823 151.578 475.273 144.339 493.954 156.203C512.638 168.07 527.532 157.209 531.572 174.105C535.613 190.998 529.807 223.781 543.691 227.801C549.431 229.464 559.531 231.61 569.672 234.092L569.716 234.104C577.717 236.063 585.736 238.232 591.656 240.545C596.376 242.386 599.767 244.319 600.75 246.304C603.173 251.199 608.909 267.884 612.924 280.415C615.178 287.455 616.888 293.182 617.16 294.773Z" fill="#FBA09F"/>
<path d="M713.867 471.932H188.709C170.497 471.932 155.733 460.171 155.733 445.663V431.812H746.843V445.663C746.843 460.171 732.08 471.932 713.867 471.932Z" fill="#1C7FEA"/>
<path d="M514.535 172.127C514.535 172.127 526.356 172.204 527.59 177.031C528.824 181.858 523.999 188.204 526.916 192.048C529.834 195.891 533.702 201.799 533.702 201.799V189.545C533.702 189.545 533.088 172.383 529.497 169.79C525.907 167.198 514.535 172.127 514.535 172.127Z" fill="#FB7773"/>
<path d="M444.937 169.611C444.937 169.611 454.213 153.777 475.702 160.227C482.874 162.38 488.954 166.363 493.154 171.47C498.116 177.505 506.515 186.376 508.823 180.473C508.823 180.473 483.857 146.199 471.234 149.392C458.61 152.584 443.076 158.78 444.937 169.611Z" fill="#FB7773"/>
<path d="M437.823 370.73C437.823 370.73 422.675 373.143 434.794 390.573C446.912 408.003 508.966 425.97 532.977 420.875C556.988 415.78 595.699 386.283 580.551 376.897C565.403 367.512 437.823 370.73 437.823 370.73Z" fill="#B41D0A"/>
<path d="M537.378 186.574C534.578 193.477 536.453 197.231 536.453 197.231C531.235 196.965 528.207 189.723 528.207 189.723C529.891 188.516 536.116 173.634 521.978 171.757C507.841 169.88 508.821 180.473 508.821 180.473C500.545 185.3 499.257 161.703 474.01 156.607C448.763 151.511 444.935 169.611 444.935 169.611C444.285 168.249 443.837 166.91 443.577 165.591C439.187 143.459 487.596 128.379 518.304 138.237C533.568 143.14 540.696 154.794 540.997 168.091C541.133 174.076 539.885 180.391 537.378 186.574Z" fill="#12AEAB"/>
<path d="M617.16 294.773C617.916 299.2 426.295 344.25 422.507 345.656C418.72 347.066 400.292 336.154 401.048 328.649C401.272 326.442 401.973 323.144 403.048 319.107C414.646 315.885 438.916 283.511 445.258 276.874C451.6 270.238 445.258 241.372 445.258 241.372L445.269 241.369L463.708 237.957L464.255 237.858C464.255 237.858 463.139 255.081 474.517 269.837C485.89 284.59 507.335 280.494 535.866 279.488C564.394 278.482 569.672 234.092 569.672 234.092L569.716 234.104L591.656 240.545C591.656 240.545 588.463 265.612 587.956 273.658C587.454 281.701 594.438 280.295 594.438 280.295C600.285 279.701 606.883 279.382 612.925 280.415C615.178 287.455 616.888 293.182 617.16 294.773Z" fill="#FB7773"/>
<path d="M492.946 218.953C492.946 218.953 512.483 211.913 519.477 205.087C519.477 205.087 522.799 202.859 520.526 208.291C518.253 213.723 492.946 228.19 492.946 228.19C492.946 228.19 493.518 222.928 492.946 218.953Z" fill="#FB7773"/>
<path d="M460.802 237.882C460.649 237.908 461.046 269.399 478.847 279.386C496.649 289.372 544.789 291.569 556.072 274.792C567.355 258.014 571.715 233.428 571.715 233.428L589.782 238.674C589.782 238.674 580.894 271.796 587.915 290.371C594.935 308.946 453.022 301.955 453.022 301.955C453.022 301.955 454.928 255.155 446.829 240.114L460.802 237.882Z" fill="#F05831"/>
<path d="M617.161 284.838V381.664C617.161 383.111 615.674 384.296 613.858 384.296H423.268C421.451 384.296 419.965 383.111 419.965 381.664V284.838C419.965 283.391 421.451 282.207 423.268 282.207H613.858C615.674 282.207 617.161 283.391 617.161 284.838Z" fill="#07193D"/>
<path d="M517.732 341.663C526.151 341.663 532.977 338.579 532.977 334.775C532.977 330.971 526.151 327.887 517.732 327.887C509.312 327.887 502.486 330.971 502.486 334.775C502.486 338.579 509.312 341.663 517.732 341.663Z" fill="white"/>
<g opacity="0.28">
<path d="M617.16 310.259V381.664C617.16 383.111 615.673 384.295 613.857 384.295H423.267C421.45 384.295 419.964 383.111 419.964 381.664V356.918L617.16 310.259Z" fill="#587199"/>
</g>
<path d="M200.336 471.932C200.336 471.932 189.89 353.813 166.505 349.679C143.12 345.546 118.031 349.679 118.031 349.679C118.031 349.679 101.873 345.665 112.477 370.197C123.081 394.73 162.466 471.932 162.466 471.932L200.336 471.932Z" fill="#2B91ED"/>
<path d="M715.021 471.932C715.021 471.932 725.466 353.813 748.851 349.679C772.236 345.546 797.325 349.679 797.325 349.679C797.325 349.679 813.483 345.665 802.879 370.197C792.275 394.73 752.891 471.932 752.891 471.932L715.021 471.932Z" fill="#2B91ED"/>
<path d="M752.902 471.932H162.129V485.233H752.902V471.932Z" fill="#07193D"/>
<path d="M208.228 485.233L151.339 579.356H166.824L236.168 485.233H208.228Z" fill="#07193D"/>
<path d="M709.289 485.233L766.179 579.356H750.694L681.35 485.233H709.289Z" fill="#07193D"/>
<path d="M592.706 409.798C587.384 417.119 582.213 426.878 579.127 433.073C578.682 433.027 578.231 432.98 577.772 432.939C577.593 432.921 577.409 432.904 577.226 432.886C576.675 432.834 576.114 432.784 575.541 432.737C574.778 432.673 573.992 432.612 573.185 432.55C573.086 432.541 572.983 432.533 572.88 432.527C555.157 431.217 528.281 430.904 510.668 430.857C500.157 430.825 492.945 430.889 492.945 430.889C491.018 430.995 489.109 431.088 487.219 431.176C378.8 436.117 335.449 411.236 343.152 391.168C343.607 389.979 344.246 388.806 345.057 387.657C351.002 379.258 364.31 375.594 378.084 374.214C398.424 372.177 419.05 375.296 437.243 382.827C448.932 387.672 465.679 393.981 484.69 399.249C485.784 399.553 486.889 399.854 487.997 400.15C489.105 400.448 490.225 400.74 491.348 401.03C496.034 402.235 501.265 403.272 506.843 404.173C528.331 407.637 554.991 409.012 575.775 409.529C575.882 409.532 575.992 409.535 576.098 409.538C576.568 409.549 577.034 409.558 577.497 409.57H577.526C577.918 409.579 578.311 409.587 578.7 409.596C579.262 409.608 579.816 409.619 580.363 409.631C580.73 409.64 581.093 409.646 581.453 409.652C582.349 409.669 583.226 409.684 584.092 409.698C584.334 409.704 584.573 409.707 584.811 409.71C585.619 409.722 586.411 409.733 587.186 409.742C587.839 409.751 588.481 409.76 589.109 409.765C589.454 409.768 589.795 409.771 590.133 409.774C590.569 409.78 591.002 409.786 591.428 409.789C591.619 409.789 591.806 409.789 591.99 409.792C592.233 409.795 592.468 409.798 592.706 409.798Z" fill="#FBA09F"/>
<path d="M510.668 430.858C500.157 430.826 492.945 430.89 492.945 430.89C491.018 430.995 489.109 431.089 487.219 431.176C378.8 436.117 335.449 411.237 343.152 391.169C364.953 423.946 465.595 434.419 477.714 428.785C489.832 423.154 484.691 399.25 484.691 399.25C485.784 399.554 486.889 399.855 487.997 400.15C489.106 400.448 490.225 400.741 491.348 401.031C496.035 402.235 501.265 403.273 506.843 404.173C509.376 407.117 511.508 410.541 512.976 413.915C515.571 419.876 514.665 425.487 510.668 430.858Z" fill="#FB7773"/>
<path d="M632.663 442.327C632.659 442.33 632.659 442.333 632.656 442.336C632.087 443.035 631.51 443.736 630.938 444.435C629.833 445.78 628.721 447.125 627.605 448.467C626.471 449.827 625.337 451.186 624.196 452.54C623.627 453.218 623.054 453.896 622.486 454.572C616.775 461.328 611.031 467.982 605.555 474.356C604.979 475.028 604.403 475.695 603.834 476.362C603.335 476.94 602.843 477.516 602.351 478.09C601.43 479.163 600.52 480.227 599.621 481.282C598.905 482.118 598.2 482.949 597.503 483.773C597.062 484.291 596.626 484.806 596.192 485.317C595.715 485.881 595.246 486.44 594.776 486.995C592.93 489.194 591.146 491.337 589.443 493.413C586.573 496.915 583.938 500.228 581.611 503.309C575.757 511.063 571.86 517.343 571.126 521.436C567.467 541.852 568.043 554.57 572.865 564.148C573.809 566.019 574.909 567.77 576.176 569.434C576.176 569.434 581.394 573.86 578.363 578.418C575.482 582.757 555.832 586.125 545.812 582.394C545.302 582.207 544.818 581.999 544.363 581.771C534.938 577.076 523.832 570.106 529.216 536.048C529.216 536.048 529.047 522.105 534.266 518.752C538.002 516.352 543.831 512.025 548.562 504.987C550.437 502.198 552.14 498.982 553.472 495.29C553.516 495.164 553.564 495.035 553.612 494.901C553.637 494.836 553.659 494.769 553.685 494.705C554.258 493.135 555.05 491.006 556.019 488.454C556.125 488.176 556.232 487.896 556.342 487.606C556.537 487.089 556.742 486.557 556.951 486.01C557.072 485.697 557.193 485.379 557.318 485.054C557.821 483.75 558.353 482.37 558.915 480.929V480.926C559.017 480.663 559.12 480.394 559.226 480.128C559.3 479.935 559.377 479.739 559.454 479.546C559.634 479.084 559.814 478.619 559.997 478.148C560.085 477.929 560.17 477.71 560.258 477.487C560.346 477.265 560.434 477.043 560.518 476.821C560.782 476.152 561.05 475.473 561.322 474.786C561.692 473.85 562.071 472.897 562.456 471.932C562.636 471.479 562.819 471.02 563.003 470.561C563.193 470.082 563.388 469.602 563.582 469.117C563.703 468.81 563.828 468.5 563.953 468.19C564.192 467.6 564.43 467.006 564.673 466.407C564.801 466.085 564.933 465.761 565.065 465.436C565.242 465.004 565.418 464.568 565.594 464.132C565.722 463.819 565.851 463.504 565.979 463.188C566.082 462.939 566.185 462.688 566.287 462.436C566.431 462.086 566.574 461.735 566.717 461.384C567.297 459.969 567.884 458.545 568.479 457.118C576.531 437.74 585.523 417.894 589.905 413.915C589.905 413.915 507.925 412.831 494.375 406.396C494.375 406.396 509.338 399.414 530.533 390.859C575.408 372.747 648.219 347.583 666.052 366.707C678.752 380.325 657.987 411.255 632.663 442.327Z" fill="#FBA09F"/>
<path d="M632.307 377.635C608.829 386.082 589.906 413.915 589.906 413.915C589.906 413.915 507.926 412.83 494.376 406.395C494.376 406.395 509.339 399.413 530.534 390.859C564.086 411.324 583.835 392.318 610.091 381.053C636.347 369.791 632.307 377.635 632.307 377.635Z" fill="#FB7773"/>
<path d="M592.706 409.795V409.798C587.384 417.119 582.213 426.878 579.126 433.073C576.748 432.825 574.087 432.606 571.213 432.407C555.322 431.322 532.938 430.974 516.172 430.878C513.332 430.863 510.649 430.854 508.19 430.852C499.04 430.837 492.944 430.889 492.944 430.889C491.017 430.995 489.109 431.088 487.219 431.176C490.966 420.084 489.421 407.333 487.997 400.15C489.105 400.448 490.224 400.74 491.348 401.03C496.089 402.246 501.382 403.296 507.03 404.202C509.669 404.626 512.388 405.018 515.163 405.38C534.934 407.968 557.597 409.076 575.775 409.529C582.055 409.687 587.802 409.763 592.706 409.795Z" fill="#FFA931"/>
<path d="M507.03 404.203C507.03 404.203 513.769 416.874 508.19 430.852L516.173 430.879C516.173 430.879 522.992 419.251 515.163 405.381L507.03 404.203Z" fill="#07193D"/>
<path d="M592.705 409.798C587.383 417.119 582.212 426.878 579.125 433.073C578.681 433.027 578.23 432.98 577.771 432.939C577.592 432.922 577.408 432.904 577.225 432.887C576.674 432.834 576.112 432.784 575.54 432.737C574.777 432.673 573.991 432.609 573.184 432.55C573.085 432.542 572.982 432.533 572.879 432.527C572.332 432.486 571.778 432.445 571.213 432.407C583.86 416.859 575.775 409.529 575.775 409.529C575.881 409.532 575.992 409.535 576.098 409.538C576.568 409.55 577.034 409.558 577.496 409.57H577.526C577.918 409.579 578.311 409.588 578.7 409.596C579.261 409.608 579.816 409.62 580.363 409.632C580.729 409.64 581.093 409.646 581.453 409.652C582.348 409.669 583.225 409.684 584.091 409.699C584.334 409.702 584.572 409.707 584.811 409.71C585.618 409.722 586.411 409.734 587.185 409.742C587.838 409.751 588.481 409.757 589.108 409.766C589.453 409.769 589.795 409.772 590.132 409.775C590.569 409.78 591.002 409.783 591.428 409.789C591.619 409.789 591.806 409.789 591.989 409.792C592.231 409.792 592.47 409.795 592.705 409.795" fill="#FF9138"/>
<path d="M632.655 442.336C632.086 443.035 631.51 443.736 630.938 444.435C629.833 445.78 628.721 447.125 627.605 448.467C626.471 449.826 625.337 451.186 624.195 452.54C623.626 453.218 623.054 453.896 622.485 454.571C616.774 461.328 611.031 467.982 605.555 474.356C604.979 475.028 604.402 475.695 603.833 476.361C603.334 476.94 602.842 477.516 602.351 478.089C601.429 479.162 600.519 480.227 599.62 481.282C598.904 482.118 598.2 482.949 597.502 483.773C597.062 484.291 596.625 484.805 596.192 485.317C595.715 485.881 595.245 486.44 594.776 486.995C592.929 489.194 591.146 491.337 589.443 493.413C586.573 496.915 583.938 500.228 581.611 503.309C568.534 506.405 556.118 507.496 548.562 504.987C550.437 502.198 552.14 498.982 553.472 495.29C553.516 495.164 553.564 495.035 553.611 494.901C553.637 494.836 553.659 494.769 553.685 494.705C554.257 493.135 555.05 491.006 556.019 488.454C556.125 488.176 556.232 487.896 556.342 487.606C556.536 487.089 556.742 486.557 556.951 486.01C557.072 485.697 557.193 485.379 557.318 485.054C557.821 483.75 558.353 482.37 558.914 480.929V480.926C559.017 480.663 559.12 480.394 559.226 480.128C559.3 479.935 559.377 479.739 559.454 479.546C559.634 479.084 559.813 478.619 559.997 478.148C560.085 477.929 560.17 477.71 560.258 477.488C560.346 477.265 560.434 477.043 560.518 476.821C560.782 476.152 561.05 475.473 561.322 474.786C561.692 473.85 562.07 472.897 562.456 471.933C562.636 471.479 562.819 471.02 563.002 470.561C563.193 470.082 563.388 469.602 563.582 469.117C563.703 468.81 563.828 468.5 563.953 468.19C564.192 467.6 564.43 467.006 564.672 466.407C564.801 466.085 564.933 465.761 565.065 465.436C565.241 465.004 565.417 464.568 565.594 464.132C565.722 463.819 565.851 463.504 565.979 463.188C566.082 462.939 566.185 462.688 566.287 462.436C566.431 462.086 566.574 461.735 566.717 461.384C567.297 459.969 567.884 458.545 568.478 457.118C579.784 461.895 608.128 469.713 632.655 442.336Z" fill="#FB7773"/>
<path d="M605.555 474.356C604.979 475.028 604.402 475.695 603.833 476.361C603.334 476.94 602.842 477.516 602.351 478.089C601.429 479.162 600.519 480.226 599.62 481.282C598.904 482.118 598.2 482.948 597.502 483.773C597.062 484.29 596.625 484.805 596.192 485.317C595.715 485.881 595.245 486.439 594.776 486.995C592.929 489.193 591.146 491.336 589.443 493.412C586.573 496.915 583.938 500.227 581.611 503.309C575.757 511.062 571.859 517.342 571.125 521.436C567.466 541.851 568.042 554.569 572.865 564.147C573.808 566.019 574.909 567.77 576.175 569.433C576.175 569.433 581.394 573.86 578.363 578.418C575.481 582.756 555.831 586.124 545.812 582.394C545.302 582.207 544.817 581.999 544.362 581.771C535.29 577.251 524.665 570.626 528.68 539.77C528.834 538.565 529.014 537.325 529.216 536.048C529.216 536.048 529.047 522.105 534.266 518.752C536.178 517.524 538.637 515.79 541.217 513.448C543.68 511.212 546.252 508.422 548.561 504.987C550.436 502.198 552.139 498.982 553.471 495.289C553.515 495.164 553.563 495.035 553.611 494.901C553.636 494.836 553.658 494.769 553.684 494.705C554.257 493.135 555.049 491.006 556.018 488.454C556.125 488.176 556.231 487.895 556.341 487.606C556.536 487.089 556.741 486.557 556.95 486.01C557.071 485.697 557.193 485.378 557.317 485.054C557.82 483.75 558.352 482.37 558.914 480.929V480.926C559.016 480.663 559.119 480.393 559.226 480.128C559.299 479.935 559.376 479.739 559.453 479.546C559.633 479.084 559.813 478.619 559.996 478.148C560.085 477.929 560.169 477.71 560.257 477.487C560.345 477.265 560.433 477.043 560.518 476.821C560.782 476.151 561.05 475.473 561.321 474.786C561.692 473.85 562.07 472.897 562.455 471.932C562.635 471.479 562.819 471.02 563.002 470.561C563.193 470.082 563.387 469.602 563.582 469.117C563.703 468.81 563.828 468.5 563.952 468.19C564.191 467.6 564.43 467.006 564.672 466.407C564.8 466.085 564.932 465.761 565.065 465.436C565.241 465.003 565.417 464.568 565.593 464.132C565.721 463.819 565.85 463.503 565.979 463.188C566.081 462.939 566.184 462.688 566.287 462.436C566.43 462.085 566.573 461.734 566.716 461.384C566.717 461.384 587.894 475.142 605.555 474.356Z" fill="#FFA931"/>
<path d="M596.192 485.317C595.715 485.881 595.245 486.439 594.776 486.995C592.93 489.193 591.146 491.336 589.443 493.412C589.443 493.412 566.563 489.228 558.915 480.928V480.925C559.018 480.662 559.121 480.393 559.227 480.127C559.3 479.934 559.377 479.738 559.454 479.546C559.634 479.084 559.814 478.619 559.998 478.148C560.086 477.929 560.17 477.71 560.258 477.487C560.346 477.265 560.434 477.043 560.519 476.821C560.783 476.151 561.051 475.473 561.322 474.786C561.693 473.85 562.071 472.897 562.456 471.932C562.456 471.932 578.341 485.401 596.192 485.317Z" fill="#07193D"/>
<path d="M578.363 578.418C575.482 582.756 555.832 586.124 545.812 582.394C545.812 582.394 536.652 564.022 572.865 564.147C573.808 566.018 574.909 567.77 576.175 569.433C576.175 569.433 581.394 573.86 578.363 578.418Z" fill="#07193D"/>
<path d="M528.68 539.77C528.834 538.565 529.014 537.326 529.216 536.048C529.216 536.048 529.047 522.105 534.266 518.752C536.178 517.524 538.637 515.79 541.217 513.448C541.217 513.448 557.85 528.537 528.68 539.77Z" fill="#07193D"/>
<path d="M537.379 186.574C534.579 193.477 536.454 197.231 536.454 197.231C531.235 196.965 528.207 189.723 528.207 189.723C529.891 188.516 536.116 173.634 521.979 171.757C507.841 169.88 508.821 180.473 508.821 180.473C500.545 185.3 499.257 161.703 474.01 156.607C448.763 151.511 444.935 169.611 444.935 169.611C444.286 168.249 443.838 166.91 443.577 165.591C445.177 162.372 453.886 147.663 476.803 154.73C499.488 161.726 521.725 171.982 540.997 168.091C541.133 174.076 539.886 180.391 537.379 186.574Z" fill="#1D8B70"/>
<path d="M317.348 375.333V428.283C317.348 430.231 315.364 431.812 312.918 431.812H273.841C271.396 431.812 269.411 430.231 269.411 428.283V375.853C269.389 374.15 270.033 373.181 270.697 372.635C271.393 372.062 272.115 371.955 272.115 371.955C272.115 371.955 272.118 371.955 272.121 371.955C272.722 371.952 311.839 371.734 314.568 371.955C314.571 371.955 314.571 371.955 314.574 371.955C315.449 372.027 316.046 372.406 316.455 372.885C317.315 373.888 317.348 375.333 317.348 375.333Z" fill="white"/>
<path d="M295.5 383.396V383.416C295.5 383.787 295.5 384.159 295.497 384.53C295.497 384.618 295.491 384.708 295.473 384.795C295.381 385.22 295.11 385.56 294.665 385.805C294.25 386.034 293.787 386.119 293.287 386.058C292.887 386.012 292.537 385.876 292.247 385.652C291.844 385.344 291.646 384.965 291.649 384.518C291.653 384.154 291.649 383.792 291.649 383.428V383.394H291.168V383.418C291.168 383.802 291.165 384.185 291.171 384.567C291.177 384.982 291.335 385.356 291.649 385.689C291.976 386.034 292.399 386.267 292.924 386.386C293.055 386.415 293.192 386.432 293.33 386.456V387.42H291.89V387.799H295.256V387.418H293.817V386.454C293.82 386.451 293.82 386.449 293.823 386.449C293.845 386.446 293.863 386.444 293.885 386.442C294.394 386.388 294.842 386.223 295.214 385.941C295.729 385.555 295.979 385.074 295.982 384.513V383.396H295.5V383.396ZM295.018 382.068C295.018 381.995 295.009 381.922 294.994 381.849C294.845 381.14 293.884 380.713 293.043 380.982C292.488 381.16 292.131 381.577 292.131 382.056C292.128 382.469 292.131 382.882 292.131 383.295V384.529C292.131 384.63 292.143 384.732 292.177 384.832C292.323 385.284 292.808 385.626 293.387 385.685C293.649 385.711 293.906 385.687 294.146 385.6C294.714 385.388 295.012 385.026 295.015 384.529C295.024 383.707 295.018 382.889 295.018 382.068Z" fill="#05328F"/>
<path d="M292.13 383.295C292.13 382.882 292.129 382.469 292.131 382.056C292.132 381.577 292.487 381.16 293.044 380.982C293.883 380.713 294.845 381.14 294.994 381.85C295.009 381.922 295.017 381.996 295.017 382.069C295.019 382.889 295.024 383.709 295.016 384.528C295.012 385.027 294.713 385.387 294.146 385.599C293.906 385.688 293.65 385.71 293.387 385.684C292.808 385.625 292.322 385.284 292.176 384.832C292.144 384.732 292.13 384.631 292.13 384.528C292.131 384.117 292.13 383.706 292.13 383.295Z" fill="#05328F"/>
<path d="M291.892 387.8C291.892 387.673 291.892 387.548 291.892 387.42C292.372 387.42 292.85 387.42 293.332 387.42C293.332 387.095 293.332 386.773 293.332 386.457C293.194 386.433 293.057 386.416 292.923 386.386C292.4 386.268 291.975 386.034 291.649 385.688C291.337 385.357 291.177 384.982 291.171 384.568C291.166 384.185 291.169 383.801 291.169 383.418C291.169 383.411 291.169 383.404 291.169 383.395C291.33 383.395 291.487 383.395 291.65 383.395C291.65 383.406 291.65 383.417 291.65 383.429C291.65 383.792 291.652 384.155 291.649 384.518C291.646 384.965 291.845 385.343 292.247 385.653C292.537 385.876 292.886 386.011 293.287 386.059C293.788 386.118 294.251 386.034 294.666 385.805C295.111 385.56 295.382 385.221 295.474 384.795C295.492 384.708 295.498 384.619 295.498 384.531C295.501 384.159 295.5 383.788 295.5 383.416C295.5 383.41 295.5 383.404 295.501 383.395C295.661 383.395 295.819 383.395 295.981 383.395C295.981 383.408 295.981 383.419 295.981 383.43C295.981 383.791 295.983 384.152 295.981 384.513C295.978 385.075 295.728 385.555 295.214 385.941C294.841 386.222 294.395 386.387 293.886 386.442C293.865 386.444 293.843 386.447 293.822 386.449C293.821 386.449 293.821 386.451 293.818 386.453C293.818 386.772 293.818 387.093 293.818 387.418C294.297 387.418 294.776 387.418 295.257 387.418C295.257 387.547 295.257 387.672 295.257 387.8C294.137 387.8 293.016 387.8 291.892 387.8Z" fill="#05328F"/>
<path d="M272.727 371.07C272.727 371.07 270.405 371.628 270.703 372.655C270.703 372.655 273.094 376.341 292.064 376.336C292.064 376.336 312.233 376.119 316.457 372.887C316.457 372.887 316.86 371.447 313.364 370.68C309.867 369.913 272.727 371.07 272.727 371.07Z" fill="#AAAAAA"/>
<path d="M293.345 375.408C305.07 375.408 314.574 373.82 314.574 371.862C314.574 369.904 305.07 368.316 293.345 368.316C281.62 368.316 272.115 369.904 272.115 371.862C272.115 373.82 281.62 375.408 293.345 375.408Z" fill="#07193D"/>
<path d="M293.577 379.049C289.875 379.049 286.863 381.446 286.863 384.395C286.863 387.343 289.875 389.743 293.577 389.743C297.275 389.743 300.288 387.343 300.288 384.395C300.287 381.446 297.275 379.049 293.577 379.049ZM293.577 389.386C290.123 389.386 287.311 387.146 287.311 384.394C287.311 381.643 290.123 379.403 293.577 379.403C297.031 379.403 299.842 381.643 299.842 384.394C299.842 387.146 297.031 389.386 293.577 389.386Z" fill="#05328F"/>
<path opacity="0.41" d="M317.348 404.818V419.535C317.348 420.756 269.41 420.756 269.41 419.535V404.818L286.527 405.489C291.222 405.672 295.926 405.671 300.621 405.484L317.348 404.818Z" fill="#05328F"/>
<path d="M274.391 407.975C274.391 408.413 273.945 408.769 273.395 408.769C272.844 408.769 272.398 408.413 272.398 407.975C272.398 407.537 272.844 407.182 273.395 407.182C273.945 407.182 274.391 407.537 274.391 407.975Z" fill="white"/>
<path d="M278.399 407.975C278.399 408.413 277.954 408.769 277.403 408.769C276.853 408.769 276.407 408.413 276.407 407.975C276.407 407.537 276.853 407.182 277.403 407.182C277.954 407.182 278.399 407.537 278.399 407.975Z" fill="white"/>
<path d="M282.407 407.975C282.407 408.413 281.961 408.769 281.411 408.769C280.861 408.769 280.415 408.413 280.415 407.975C280.415 407.537 280.861 407.182 281.411 407.182C281.961 407.182 282.407 407.537 282.407 407.975Z" fill="white"/>
<path d="M286.416 407.975C286.416 408.413 285.97 408.769 285.42 408.769C284.87 408.769 284.424 408.413 284.424 407.975C284.424 407.537 284.87 407.182 285.42 407.182C285.97 407.182 286.416 407.537 286.416 407.975Z" fill="white"/>
<path d="M290.424 407.975C290.424 408.413 289.978 408.769 289.428 408.769C288.878 408.769 288.432 408.413 288.432 407.975C288.432 407.537 288.878 407.182 289.428 407.182C289.978 407.182 290.424 407.537 290.424 407.975Z" fill="white"/>
<path d="M294.432 407.975C294.432 408.413 293.986 408.769 293.436 408.769C292.885 408.769 292.439 408.413 292.439 407.975C292.439 407.537 292.885 407.182 293.436 407.182C293.986 407.182 294.432 407.537 294.432 407.975Z" fill="white"/>
<path d="M298.44 407.975C298.44 408.413 297.994 408.769 297.443 408.769C296.893 408.769 296.447 408.413 296.447 407.975C296.447 407.537 296.893 407.182 297.443 407.182C297.994 407.182 298.44 407.537 298.44 407.975Z" fill="white"/>
<path d="M302.448 407.975C302.448 408.413 302.002 408.769 301.451 408.769C300.901 408.769 300.455 408.413 300.455 407.975C300.455 407.537 300.901 407.182 301.451 407.182C302.002 407.182 302.448 407.537 302.448 407.975Z" fill="white"/>
<path d="M306.456 407.975C306.456 408.413 306.01 408.769 305.46 408.769C304.91 408.769 304.464 408.413 304.464 407.975C304.464 407.537 304.91 407.182 305.46 407.182C306.01 407.182 306.456 407.537 306.456 407.975Z" fill="white"/>
<path d="M310.464 407.975C310.464 408.413 310.018 408.769 309.468 408.769C308.918 408.769 308.472 408.413 308.472 407.975C308.472 407.537 308.918 407.182 309.468 407.182C310.018 407.182 310.464 407.537 310.464 407.975Z" fill="white"/>
<path d="M314.473 407.975C314.473 408.413 314.027 408.769 313.477 408.769C312.926 408.769 312.48 408.413 312.48 407.975C312.48 407.537 312.926 407.182 313.477 407.182C314.027 407.182 314.473 407.537 314.473 407.975Z" fill="white"/>
<path d="M274.391 411.355C274.391 411.793 273.945 412.149 273.395 412.149C272.844 412.149 272.398 411.793 272.398 411.355C272.398 410.917 272.844 410.562 273.395 410.562C273.945 410.562 274.391 410.917 274.391 411.355Z" fill="white"/>
<path d="M278.399 411.355C278.399 411.793 277.954 412.149 277.403 412.149C276.853 412.149 276.407 411.793 276.407 411.355C276.407 410.917 276.853 410.562 277.403 410.562C277.954 410.562 278.399 410.917 278.399 411.355Z" fill="white"/>
<path d="M282.407 411.355C282.407 411.793 281.961 412.149 281.411 412.149C280.861 412.149 280.415 411.793 280.415 411.355C280.415 410.917 280.861 410.562 281.411 410.562C281.961 410.562 282.407 410.917 282.407 411.355Z" fill="white"/>
<path d="M285.419 412.149C285.969 412.149 286.415 411.793 286.415 411.355C286.415 410.917 285.969 410.562 285.419 410.562C284.869 410.562 284.423 410.917 284.423 411.355C284.423 411.793 284.869 412.149 285.419 412.149Z" fill="white"/>
<path d="M290.424 411.355C290.424 411.793 289.978 412.149 289.428 412.149C288.878 412.149 288.432 411.793 288.432 411.355C288.432 410.917 288.878 410.562 289.428 410.562C289.978 410.562 290.424 410.917 290.424 411.355Z" fill="white"/>
<path d="M293.436 412.149C293.986 412.149 294.432 411.793 294.432 411.355C294.432 410.917 293.986 410.562 293.436 410.562C292.885 410.562 292.439 410.917 292.439 411.355C292.439 411.793 292.885 412.149 293.436 412.149Z" fill="white"/>
<path d="M298.44 411.355C298.44 411.793 297.994 412.149 297.443 412.149C296.893 412.149 296.447 411.793 296.447 411.355C296.447 410.917 296.893 410.562 297.443 410.562C297.994 410.562 298.44 410.917 298.44 411.355Z" fill="white"/>
<path d="M302.448 411.355C302.448 411.793 302.002 412.149 301.451 412.149C300.901 412.149 300.455 411.793 300.455 411.355C300.455 410.917 300.901 410.562 301.451 410.562C302.002 410.562 302.448 410.917 302.448 411.355Z" fill="white"/>
<path d="M306.456 411.355C306.456 411.793 306.01 412.149 305.46 412.149C304.91 412.149 304.464 411.793 304.464 411.355C304.464 410.917 304.91 410.562 305.46 410.562C306.01 410.562 306.456 410.917 306.456 411.355Z" fill="white"/>
<path d="M310.464 411.355C310.464 411.793 310.018 412.149 309.468 412.149C308.918 412.149 308.472 411.793 308.472 411.355C308.472 410.917 308.918 410.562 309.468 410.562C310.018 410.562 310.464 410.917 310.464 411.355Z" fill="white"/>
<path d="M314.473 411.355C314.473 411.793 314.027 412.149 313.477 412.149C312.926 412.149 312.48 411.793 312.48 411.355C312.48 410.917 312.926 410.562 313.477 410.562C314.027 410.562 314.473 410.917 314.473 411.355Z" fill="white"/>
<path d="M274.391 414.735C274.391 415.174 273.945 415.529 273.395 415.529C272.844 415.529 272.398 415.174 272.398 414.735C272.398 414.297 272.844 413.942 273.395 413.942C273.945 413.942 274.391 414.297 274.391 414.735Z" fill="white"/>
<path d="M278.399 414.735C278.399 415.174 277.954 415.529 277.403 415.529C276.853 415.529 276.407 415.174 276.407 414.735C276.407 414.297 276.853 413.942 277.403 413.942C277.954 413.942 278.399 414.297 278.399 414.735Z" fill="white"/>
<path d="M282.407 414.735C282.407 415.174 281.961 415.529 281.411 415.529C280.861 415.529 280.415 415.174 280.415 414.735C280.415 414.297 280.861 413.942 281.411 413.942C281.961 413.942 282.407 414.297 282.407 414.735Z" fill="white"/>
<path d="M286.416 414.735C286.416 415.174 285.97 415.529 285.42 415.529C284.87 415.529 284.424 415.174 284.424 414.735C284.424 414.297 284.87 413.942 285.42 413.942C285.97 413.942 286.416 414.297 286.416 414.735Z" fill="white"/>
<path d="M290.424 414.735C290.424 415.174 289.978 415.529 289.428 415.529C288.878 415.529 288.432 415.174 288.432 414.735C288.432 414.297 288.878 413.942 289.428 413.942C289.978 413.942 290.424 414.297 290.424 414.735Z" fill="white"/>
<path d="M294.432 414.735C294.432 415.174 293.986 415.529 293.436 415.529C292.885 415.529 292.439 415.174 292.439 414.735C292.439 414.297 292.885 413.942 293.436 413.942C293.986 413.942 294.432 414.297 294.432 414.735Z" fill="white"/>
<path d="M298.44 414.735C298.44 415.174 297.994 415.529 297.443 415.529C296.893 415.529 296.447 415.174 296.447 414.735C296.447 414.297 296.893 413.942 297.443 413.942C297.994 413.942 298.44 414.297 298.44 414.735Z" fill="white"/>
<path d="M302.448 414.735C302.448 415.174 302.002 415.529 301.451 415.529C300.901 415.529 300.455 415.174 300.455 414.735C300.455 414.297 300.901 413.942 301.451 413.942C302.002 413.942 302.448 414.297 302.448 414.735Z" fill="white"/>
<path d="M306.456 414.735C306.456 415.174 306.01 415.529 305.46 415.529C304.91 415.529 304.464 415.174 304.464 414.735C304.464 414.297 304.91 413.942 305.46 413.942C306.01 413.942 306.456 414.297 306.456 414.735Z" fill="white"/>
<path d="M310.464 414.735C310.464 415.174 310.018 415.529 309.468 415.529C308.918 415.529 308.472 415.174 308.472 414.735C308.472 414.297 308.918 413.942 309.468 413.942C310.018 413.942 310.464 414.297 310.464 414.735Z" fill="white"/>
<path d="M314.473 414.735C314.473 415.174 314.027 415.529 313.477 415.529C312.926 415.529 312.48 415.174 312.48 414.735C312.48 414.297 312.926 413.942 313.477 413.942C314.027 413.942 314.473 414.297 314.473 414.735Z" fill="white"/>
<path d="M274.391 418.115C274.391 418.554 273.945 418.909 273.395 418.909C272.844 418.909 272.398 418.554 272.398 418.115C272.398 417.677 272.844 417.322 273.395 417.322C273.945 417.322 274.391 417.677 274.391 418.115Z" fill="white"/>
<path d="M278.399 418.115C278.399 418.554 277.954 418.909 277.403 418.909C276.853 418.909 276.407 418.554 276.407 418.115C276.407 417.677 276.853 417.322 277.403 417.322C277.954 417.322 278.399 417.677 278.399 418.115Z" fill="white"/>
<path d="M282.407 418.115C282.407 418.554 281.961 418.909 281.411 418.909C280.861 418.909 280.415 418.554 280.415 418.115C280.415 417.677 280.861 417.322 281.411 417.322C281.961 417.322 282.407 417.677 282.407 418.115Z" fill="white"/>
<path d="M286.416 418.115C286.416 418.554 285.97 418.909 285.42 418.909C284.87 418.909 284.424 418.554 284.424 418.115C284.424 417.677 284.87 417.322 285.42 417.322C285.97 417.322 286.416 417.677 286.416 418.115Z" fill="white"/>
<path d="M290.424 418.115C290.424 418.554 289.978 418.909 289.428 418.909C288.878 418.909 288.432 418.554 288.432 418.115C288.432 417.677 288.878 417.322 289.428 417.322C289.978 417.322 290.424 417.677 290.424 418.115Z" fill="white"/>
<path d="M294.432 418.115C294.432 418.554 293.986 418.909 293.436 418.909C292.885 418.909 292.439 418.554 292.439 418.115C292.439 417.677 292.885 417.322 293.436 417.322C293.986 417.322 294.432 417.677 294.432 418.115Z" fill="white"/>
<path d="M298.44 418.115C298.44 418.554 297.994 418.909 297.443 418.909C296.893 418.909 296.447 418.554 296.447 418.115C296.447 417.677 296.893 417.322 297.443 417.322C297.994 417.322 298.44 417.677 298.44 418.115Z" fill="white"/>
<path d="M302.448 418.115C302.448 418.554 302.002 418.909 301.451 418.909C300.901 418.909 300.455 418.554 300.455 418.115C300.455 417.677 300.901 417.322 301.451 417.322C302.002 417.322 302.448 417.677 302.448 418.115Z" fill="white"/>
<path d="M306.456 418.115C306.456 418.554 306.01 418.909 305.46 418.909C304.91 418.909 304.464 418.554 304.464 418.115C304.464 417.677 304.91 417.322 305.46 417.322C306.01 417.322 306.456 417.677 306.456 418.115Z" fill="white"/>
<path d="M310.464 418.115C310.464 418.554 310.018 418.909 309.468 418.909C308.918 418.909 308.472 418.554 308.472 418.115C308.472 417.677 308.918 417.322 309.468 417.322C310.018 417.322 310.464 417.677 310.464 418.115Z" fill="white"/>
<path d="M314.473 418.115C314.473 418.554 314.027 418.909 313.477 418.909C312.926 418.909 312.48 418.554 312.48 418.115C312.48 417.677 312.926 417.322 313.477 417.322C314.027 417.322 314.473 417.677 314.473 418.115Z" fill="white"/>
<path d="M488.686 580.199H600.872" stroke="#231F20" stroke-width="6" stroke-miterlimit="10" stroke-linecap="round"/>
<path d="M3.76562 580.199H76.5609" stroke="#231F20" stroke-width="6" stroke-miterlimit="10" stroke-linecap="round"/>
<path d="M715.506 580.199H788.301" stroke="#231F20" stroke-width="6" stroke-miterlimit="10" stroke-linecap="round"/>
<path d="M95.9678 579.419H269.417" stroke="#231F20" stroke-width="6" stroke-miterlimit="10" stroke-linecap="round"/>
<path d="M479.177 186.447C479.724 187.839 481.121 188.774 482.298 188.536C483.475 188.298 483.986 186.977 483.439 185.586C482.892 184.194 481.494 183.259 480.317 183.496C479.14 183.734 478.629 185.055 479.177 186.447Z" fill="#07193D"/>
<path d="M454.559 190.755C455.106 192.147 456.504 193.082 457.681 192.844C458.858 192.606 459.369 191.285 458.822 189.894C458.275 188.502 456.877 187.567 455.7 187.805C454.523 188.042 454.012 189.364 454.559 190.755Z" fill="#07193D"/>
<path d="M488.854 178.245C488.854 178.245 479.932 173.732 474.71 177.383" stroke="#07193D" stroke-width="3" stroke-miterlimit="10" stroke-linecap="round"/>
<path d="M460.883 179.461C460.883 179.461 453.633 177.304 451.454 182.42" stroke="#07193D" stroke-width="3" stroke-miterlimit="10" stroke-linecap="round"/>
<path d="M466.737 188.927C466.737 188.927 464.561 200.082 465.704 200.794C466.847 201.506 473.495 201.439 475.186 200.083" stroke="#D33737" stroke-width="4" stroke-miterlimit="10" stroke-linecap="round"/>
<path d="M466.24 209.238C466.24 209.238 467.946 210.902 473.909 209.992C479.873 209.082 484.267 206.081 484.267 206.081" stroke="#D33737" stroke-width="4" stroke-miterlimit="10" stroke-linecap="round"/>
<path d="M511.908 179.535C511.845 179.012 511.915 178.496 512.057 177.985C512.137 177.733 512.226 177.478 512.339 177.227C512.453 176.976 512.596 176.731 512.755 176.49C513.394 175.532 514.454 174.645 515.834 174.118C517.209 173.582 518.806 173.462 520.217 173.631C521.642 173.803 522.933 174.204 524.063 174.734L524.273 174.829C524.374 174.888 524.404 174.911 524.456 174.945C524.508 174.979 524.543 175.008 524.584 175.04C524.666 175.102 524.738 175.163 524.807 175.224C524.951 175.346 525.073 175.47 525.196 175.595C525.434 175.845 525.637 176.109 525.805 176.38C526.151 176.92 526.366 177.493 526.479 178.06C526.577 178.631 526.567 179.197 526.454 179.738C526.438 179.873 526.403 180.006 526.354 180.138L526.221 180.527C526.177 180.655 526.107 180.78 526.041 180.904C525.976 181.028 525.912 181.149 525.836 181.268L525.821 181.292C525.796 181.331 525.736 181.347 525.686 181.327C525.651 181.312 525.631 181.283 525.632 181.254C525.638 181.011 525.655 180.768 525.654 180.526C525.632 180.285 525.639 180.042 525.593 179.803C525.555 179.563 525.517 179.324 525.442 179.091C525.392 178.853 525.292 178.626 525.211 178.395C525.011 177.942 524.751 177.507 524.418 177.11C524.089 176.717 523.68 176.344 523.222 176.076L523.245 176.086C522.187 175.685 521.069 175.379 519.922 175.25C518.782 175.105 517.592 175.161 516.52 175.499C515.445 175.829 514.51 176.421 513.782 177.142C513.06 177.866 512.47 178.695 512.107 179.577C512.09 179.619 512.033 179.642 511.98 179.628C511.941 179.618 511.915 179.591 511.911 179.56L511.908 179.535Z" fill="#D33737"/>
<path d="M262.993 341.489C267.322 339.195 271.625 336.915 275.957 334.62C276.025 334.742 276.078 334.837 276.131 334.932C278.519 339.206 280.898 343.483 283.3 347.751C283.809 348.655 283.732 349.508 283.141 350.348C282.05 351.9 279.501 352.79 277.328 352.39C274.996 351.961 273.974 350.177 275.185 348.533C276.298 347.024 278.044 346.362 280.216 346.375C280.316 346.376 280.415 346.382 280.547 346.387C279.211 343.995 277.888 341.627 276.549 339.232C276.018 339.51 275.499 339.78 274.983 340.054C272.285 341.484 269.59 342.917 266.887 344.341C266.679 344.45 266.654 344.534 266.752 344.71C268.502 347.827 270.217 350.957 271.998 354.063C272.728 355.337 272.413 356.425 271.325 357.427C269.866 358.768 267.347 359.283 265.437 358.66C263.819 358.132 263.06 356.828 263.64 355.513C264.166 354.317 265.276 353.574 266.715 353.111C267.495 352.861 268.309 352.766 269.149 352.821C269.196 352.824 269.245 352.819 269.321 352.817C267.21 349.038 265.111 345.28 262.993 341.489Z" fill="white"/>
<path d="M310.278 279.293C314.243 278.006 318.185 276.727 322.154 275.439C322.184 275.547 322.207 275.63 322.231 275.714C323.28 279.475 324.321 283.238 325.383 286.996C325.608 287.792 325.371 288.471 324.721 289.072C323.521 290.182 321.281 290.568 319.609 289.962C317.815 289.312 317.356 287.738 318.672 286.569C319.88 285.496 321.426 285.19 323.176 285.483C323.256 285.496 323.335 285.515 323.441 285.536C322.854 283.431 322.272 281.347 321.684 279.239C321.198 279.395 320.723 279.545 320.251 279.698C317.779 280.501 315.31 281.306 312.835 282.103C312.645 282.164 312.607 282.228 312.65 282.383C313.422 285.128 314.164 287.877 314.962 290.617C315.29 291.741 314.812 292.578 313.728 293.244C312.275 294.137 310.135 294.224 308.722 293.472C307.524 292.835 307.179 291.684 307.917 290.698C308.588 289.801 309.637 289.346 310.893 289.16C311.574 289.06 312.251 289.089 312.918 289.243C312.956 289.252 312.996 289.254 313.058 289.262C312.131 285.936 311.209 282.629 310.278 279.293Z" fill="white"/>
<path d="M324.792 333.65C325.699 332.922 326.806 332.199 327.658 331.32C330.205 328.696 331.781 325.765 331.508 322.366C331.359 320.511 330.306 318.972 328.635 317.693C328.55 317.628 328.443 317.581 328.281 317.488C328.163 317.659 328.057 317.811 327.952 317.962C323.268 324.701 318.584 331.441 313.899 338.181C312.089 340.786 309.498 341.869 305.791 341.421C301.912 340.951 298.952 339.359 297.287 336.475C295.868 334.018 296.735 331.453 299.329 330.126C301.523 329.005 303.916 328.921 306.353 329.451C309.07 330.041 311.259 331.258 312.82 333.15C312.875 333.218 312.937 333.282 312.999 333.345C313.008 333.355 313.036 333.354 313.149 333.379C313.247 333.238 313.359 333.077 313.471 332.915C318.469 325.723 323.471 318.533 328.455 311.335C328.719 310.955 328.935 310.824 329.478 311.019C330.252 311.295 331.076 311.482 331.867 311.732C332.013 311.777 332.177 311.93 332.202 312.05C332.605 314.007 332.944 315.973 333.383 317.924C333.931 320.364 334.2 322.796 333.294 325.212C332.288 327.895 330.784 330.358 328.081 332.246C326.962 333.027 325.66 333.548 324.792 333.65Z" fill="white"/>
<path d="M291.876 307.162C292.209 306.663 292.646 306.142 292.92 305.571C293.736 303.866 293.98 302.123 293.157 300.368C292.707 299.409 291.845 298.733 290.71 298.271C290.652 298.247 290.586 298.236 290.482 298.208C290.454 298.313 290.429 298.406 290.404 298.499C289.284 302.643 288.165 306.786 287.046 310.929C286.613 312.531 285.465 313.43 283.423 313.664C281.286 313.909 279.409 313.446 277.956 312.139C276.718 311.025 276.661 309.564 277.762 308.536C278.693 307.667 279.937 307.32 281.326 307.29C282.875 307.256 284.271 307.619 285.471 308.417C285.514 308.446 285.559 308.472 285.604 308.497C285.611 308.501 285.626 308.497 285.69 308.496C285.714 308.409 285.74 308.31 285.767 308.211C286.961 303.789 288.158 299.368 289.344 294.945C289.406 294.712 289.494 294.616 289.819 294.649C290.282 294.697 290.753 294.69 291.22 294.721C291.305 294.727 291.423 294.786 291.46 294.846C292.063 295.826 292.635 296.818 293.256 297.79C294.032 299.005 294.66 300.252 294.666 301.64C294.673 303.18 294.373 304.668 293.327 306.005C292.894 306.558 292.313 306.998 291.876 307.162Z" fill="white"/>
</svg>
